<mxfile host="app.diagrams.net" modified="2024-02-20T18:21:54.387Z" agent="Mozilla/5.0 (Windows NT 10.0; Win64; x64; rv:122.0) Gecko/20100101 Firefox/122.0" etag="LLvOX2y-s4ThpkORonas" version="23.1.5" type="github" pages="2">
  <diagram name="Page-1" id="-gENq4SZmwQp6i_c-TaH">
    <mxGraphModel dx="1434" dy="774" grid="1" gridSize="10" guides="1" tooltips="1" connect="1" arrows="1" fold="1" page="1" pageScale="1" pageWidth="1100" pageHeight="850" math="0" shadow="0">
      <root>
        <mxCell id="0" />
        <mxCell id="1" parent="0" />
        <mxCell id="ucHZ3jiviMG36ocknMXL-1" style="rounded=0;orthogonalLoop=1;jettySize=auto;html=1;exitX=0.5;exitY=1;exitDx=0;exitDy=0;entryX=0.5;entryY=0;entryDx=0;entryDy=0;endArrow=none;endFill=0;" parent="1" source="ucHZ3jiviMG36ocknMXL-2" target="ucHZ3jiviMG36ocknMXL-5" edge="1">
          <mxGeometry relative="1" as="geometry" />
        </mxCell>
        <mxCell id="ucHZ3jiviMG36ocknMXL-2" value="&lt;div&gt;Verifikasi&lt;/div&gt;&lt;div&gt;User&lt;br&gt;&lt;/div&gt;" style="whiteSpace=wrap;html=1;aspect=fixed;" parent="1" vertex="1">
          <mxGeometry x="540" y="140" width="80" height="80" as="geometry" />
        </mxCell>
        <mxCell id="ucHZ3jiviMG36ocknMXL-3" style="rounded=0;orthogonalLoop=1;jettySize=auto;html=1;exitX=0.5;exitY=0;exitDx=0;exitDy=0;entryX=0.5;entryY=1;entryDx=0;entryDy=0;endArrow=none;endFill=0;" parent="1" source="ucHZ3jiviMG36ocknMXL-4" target="ucHZ3jiviMG36ocknMXL-2" edge="1">
          <mxGeometry relative="1" as="geometry" />
        </mxCell>
        <mxCell id="ucHZ3jiviMG36ocknMXL-4" value="Baca Data User" style="whiteSpace=wrap;html=1;aspect=fixed;" parent="1" vertex="1">
          <mxGeometry x="460" y="300" width="80" height="80" as="geometry" />
        </mxCell>
        <mxCell id="ucHZ3jiviMG36ocknMXL-5" value="Tampil Dashboard" style="whiteSpace=wrap;html=1;aspect=fixed;" parent="1" vertex="1">
          <mxGeometry x="620" y="300" width="80" height="80" as="geometry" />
        </mxCell>
        <mxCell id="ucHZ3jiviMG36ocknMXL-6" value="" style="endArrow=classic;html=1;rounded=0;startArrow=oval;startFill=0;" parent="1" edge="1">
          <mxGeometry relative="1" as="geometry">
            <mxPoint x="490" y="280" as="sourcePoint" />
            <mxPoint x="530" y="240" as="targetPoint" />
          </mxGeometry>
        </mxCell>
        <mxCell id="ucHZ3jiviMG36ocknMXL-7" value="input" style="edgeLabel;resizable=0;html=1;align=center;verticalAlign=middle;" parent="ucHZ3jiviMG36ocknMXL-6" connectable="0" vertex="1">
          <mxGeometry relative="1" as="geometry" />
        </mxCell>
        <mxCell id="ucHZ3jiviMG36ocknMXL-8" value="" style="endArrow=classic;html=1;rounded=0;startArrow=oval;startFill=0;" parent="1" edge="1">
          <mxGeometry relative="1" as="geometry">
            <mxPoint x="620" y="240" as="sourcePoint" />
            <mxPoint x="670" y="280" as="targetPoint" />
          </mxGeometry>
        </mxCell>
        <mxCell id="ucHZ3jiviMG36ocknMXL-9" value="output" style="edgeLabel;resizable=0;html=1;align=center;verticalAlign=middle;" parent="ucHZ3jiviMG36ocknMXL-8" connectable="0" vertex="1">
          <mxGeometry relative="1" as="geometry" />
        </mxCell>
      </root>
    </mxGraphModel>
  </diagram>
  <diagram id="bxQp5MxX6-eG5PkCosRb" name="after revisi">
    <mxGraphModel dx="574" dy="310" grid="1" gridSize="10" guides="1" tooltips="1" connect="1" arrows="1" fold="1" page="1" pageScale="1" pageWidth="1100" pageHeight="850" math="0" shadow="0">
      <root>
        <mxCell id="0" />
        <mxCell id="1" parent="0" />
        <mxCell id="4c5Dk7M25dNblhO7gDBK-1" style="rounded=0;orthogonalLoop=1;jettySize=auto;html=1;exitX=0.75;exitY=1;exitDx=0;exitDy=0;entryX=0.5;entryY=0;entryDx=0;entryDy=0;endArrow=classic;endFill=1;startArrow=none;startFill=0;" edge="1" parent="1" source="4c5Dk7M25dNblhO7gDBK-2" target="4c5Dk7M25dNblhO7gDBK-5">
          <mxGeometry relative="1" as="geometry" />
        </mxCell>
        <mxCell id="4c5Dk7M25dNblhO7gDBK-2" value="&lt;div&gt;Verifikasi&lt;/div&gt;&lt;div&gt;User&lt;br&gt;&lt;/div&gt;" style="whiteSpace=wrap;html=1;aspect=fixed;" vertex="1" parent="1">
          <mxGeometry x="540" y="140" width="80" height="80" as="geometry" />
        </mxCell>
        <mxCell id="4c5Dk7M25dNblhO7gDBK-3" style="rounded=0;orthogonalLoop=1;jettySize=auto;html=1;exitX=0.5;exitY=0;exitDx=0;exitDy=0;entryX=0.25;entryY=1;entryDx=0;entryDy=0;endArrow=none;endFill=0;" edge="1" parent="1" source="4c5Dk7M25dNblhO7gDBK-4" target="4c5Dk7M25dNblhO7gDBK-2">
          <mxGeometry relative="1" as="geometry" />
        </mxCell>
        <mxCell id="4c5Dk7M25dNblhO7gDBK-4" value="Baca Data login" style="whiteSpace=wrap;html=1;aspect=fixed;" vertex="1" parent="1">
          <mxGeometry x="460" y="300" width="80" height="80" as="geometry" />
        </mxCell>
        <mxCell id="4c5Dk7M25dNblhO7gDBK-5" value="Tampil Dashboard" style="whiteSpace=wrap;html=1;aspect=fixed;" vertex="1" parent="1">
          <mxGeometry x="620" y="300" width="80" height="80" as="geometry" />
        </mxCell>
        <mxCell id="4c5Dk7M25dNblhO7gDBK-6" value="" style="endArrow=classic;html=1;rounded=0;startArrow=oval;startFill=0;" edge="1" parent="1">
          <mxGeometry relative="1" as="geometry">
            <mxPoint x="490" y="280" as="sourcePoint" />
            <mxPoint x="530" y="240" as="targetPoint" />
          </mxGeometry>
        </mxCell>
        <mxCell id="4c5Dk7M25dNblhO7gDBK-7" value="data login" style="edgeLabel;resizable=0;html=1;align=center;verticalAlign=middle;" connectable="0" vertex="1" parent="4c5Dk7M25dNblhO7gDBK-6">
          <mxGeometry relative="1" as="geometry">
            <mxPoint x="-10" as="offset" />
          </mxGeometry>
        </mxCell>
        <mxCell id="4c5Dk7M25dNblhO7gDBK-8" value="" style="endArrow=classic;html=1;rounded=0;startArrow=oval;startFill=1;" edge="1" parent="1">
          <mxGeometry relative="1" as="geometry">
            <mxPoint x="634" y="240" as="sourcePoint" />
            <mxPoint x="664" y="280" as="targetPoint" />
          </mxGeometry>
        </mxCell>
        <mxCell id="4c5Dk7M25dNblhO7gDBK-9" value="&lt;div&gt;tampil&lt;/div&gt;" style="edgeLabel;resizable=0;html=1;align=center;verticalAlign=middle;" connectable="0" vertex="1" parent="4c5Dk7M25dNblhO7gDBK-8">
          <mxGeometry relative="1" as="geometry" />
        </mxCell>
        <mxCell id="4c5Dk7M25dNblhO7gDBK-10" value="" style="rhombus;whiteSpace=wrap;html=1;" vertex="1" parent="1">
          <mxGeometry x="594" y="215" width="20" height="10" as="geometry" />
        </mxCell>
      </root>
    </mxGraphModel>
  </diagram>
</mxfile>
